<svg id="Слой_2" data-name="Слой 2" xmlns="http://www.w3.org/2000/svg" viewBox="0 0 100 100"><title>Монтажная область 22</title><path d="M24.42,29.19a1.5,1.5,0,0,0-2.85,0l-13.33,40a1.5,1.5,0,0,0,2.85.95l4-12.14H30.5a1.49,1.49,0,0,0,.35,0l4.06,12.18a1.5,1.5,0,0,0,2.85-.95ZM16.14,55,23,34.41,29.87,55Z"/><path d="M90.12,50.11a12.92,12.92,0,0,0-5.26-3.26A10.5,10.5,0,0,0,78.3,28H69.5A1.5,1.5,0,0,0,68,29.5v40A1.5,1.5,0,0,0,69.5,71H80.35C87.08,71,93,65.49,93.29,59A11.73,11.73,0,0,0,90.12,50.11ZM71,31h7.3a7.49,7.49,0,0,1,6.06,12.18,7.47,7.47,0,0,1-4.71,2.73q-.6,0-1.22,0a1.49,1.49,0,0,0-.61.13L71,46.12Zm9.35,37H71V49.12L78.5,49a10.64,10.64,0,0,0,1.29-.08c3.52.22,6.33,1.34,8.17,3.26a8.81,8.81,0,0,1,2.33,6.66C90.07,63.81,85.52,68,80.35,68Z"/><path d="M61.36,11.88A1.5,1.5,0,0,0,59.54,13l-18,73.34a1.5,1.5,0,1,0,2.91.71l18-73.34A1.5,1.5,0,0,0,61.36,11.88Z"/></svg>