<svg id="Слой_2" data-name="Слой 2" xmlns="http://www.w3.org/2000/svg" viewBox="0 0 100 100"><title>Монтажная область 15</title><path d="M80.5,13h-50a1.5,1.5,0,0,0-1.06.44l-10,9.95a1.43,1.43,0,0,0-.18.27h0a1.45,1.45,0,0,0-.17.37,1.49,1.49,0,0,0-.07.35s0,.05,0,.08,0,0,0,0v63A1.5,1.5,0,0,0,20.5,89h50a1.49,1.49,0,0,0,.53-.1h0a1.5,1.5,0,0,0,.47-.31h0l10-9.95A1.5,1.5,0,0,0,82,77.55V14.5A1.5,1.5,0,0,0,80.5,13ZM31.12,16H76.88l-7,7H24.08ZM22,86V26H68.9l0,.06.06,0V86Zm50-2.11V25.12l7-7V76.93Z"/><path d="M53.5,32A1.5,1.5,0,0,0,52,33.5V41a6.29,6.29,0,0,1-2,4.6,7.29,7.29,0,0,1-5.42,1.93A6.91,6.91,0,0,1,38,40.64V33.5a1.5,1.5,0,0,0-3,0v7.14a9.91,9.91,0,0,0,9.39,9.84l.6,0a10.28,10.28,0,0,0,7-2.76A9.26,9.26,0,0,0,55,41V33.5A1.5,1.5,0,0,0,53.5,32Z"/></svg>