<svg id="Слой_2" data-name="Слой 2" xmlns="http://www.w3.org/2000/svg" viewBox="0 0 100 100"><title>Монтажная область 25 copy</title><circle cx="61.83" cy="47.5" r="2.5" transform="translate(-8.16 81.85) rotate(-63.67)"/><circle cx="71.83" cy="47.5" r="2.5" transform="translate(-2.6 90.82) rotate(-63.67)"/><circle cx="66.83" cy="40.5" r="2.5"/><path d="M90.74,46.84,85.42,23.16A8.36,8.36,0,0,0,78.79,17a1.48,1.48,0,0,0-.31,0H69.69c-1.77,0-3.17,1.89-4.76,5H37.76c-1.44-2.8-2.85-5-4.76-5H24.21a1.47,1.47,0,0,0-.31,0,8.36,8.36,0,0,0-6.63,6.12L11.94,46.84A65.37,65.37,0,0,0,10.7,68l.46,4.37a8.94,8.94,0,0,0,5.44,8.22,7.79,7.79,0,0,0,2.85.55,8.64,8.64,0,0,0,6.1-2.7,1.52,1.52,0,0,0,.18-.22L36.07,63H48.2c-1.86,3-3,7.33.48,11.46,4.83,5.79,6.65,8.5,6.65,14a1.5,1.5,0,0,0,3,0c0-6.47-2.24-9.83-7.35-16-3.42-4.1-.19-8.26,1-9.54H66.62L77,78.2a1.52,1.52,0,0,0,.18.22,8.2,8.2,0,0,0,8.95,2.15,8.94,8.94,0,0,0,5.44-8.22L92,68A65.37,65.37,0,0,0,90.74,46.84ZM89,67.67l-.46,4.42s0,.07,0,.1A6,6,0,0,1,85,77.77a5.19,5.19,0,0,1-5.63-1.38L68.65,60.66A1.5,1.5,0,0,0,67.41,60H35.27a1.5,1.5,0,0,0-1.24.66L23.33,76.39a5.19,5.19,0,0,1-5.64,1.38,6,6,0,0,1-3.54-5.59s0-.07,0-.1l-.46-4.42A62.32,62.32,0,0,1,14.87,47.5L20.2,23.8A5.34,5.34,0,0,1,24.37,20h8.49c.52.32,1.4,1.72,2.62,4.17a1.5,1.5,0,0,0,1.34.83h29a1.5,1.5,0,0,0,1.35-.84c1.58-3.21,2.33-4,2.62-4.16h8.49a5.34,5.34,0,0,1,4.18,3.81L87.81,47.5A62.32,62.32,0,0,1,89,67.67Z"/><path d="M32.83,36a7.5,7.5,0,1,0,7.5,7.5A7.51,7.51,0,0,0,32.83,36Zm0,12a4.5,4.5,0,1,1,4.5-4.5A4.5,4.5,0,0,1,32.83,48Z"/><path d="M68.84,15H80.43a1.5,1.5,0,0,0,0-3H68.84a1.5,1.5,0,0,0,0,3Z"/><path d="M21.84,15H33.43a1.5,1.5,0,0,0,0-3H21.84a1.5,1.5,0,0,0,0,3Z"/></svg>