<svg id="Слой_2" data-name="Слой 2" xmlns="http://www.w3.org/2000/svg" viewBox="0 0 100 100"><title>Монтажная область 5</title><path d="M86.5,17h-73A1.5,1.5,0,0,0,12,18.5v48A1.5,1.5,0,0,0,13.5,68H34.41l-16,16a1.5,1.5,0,0,0,0,2.12l6.47,6.47a1.5,1.5,0,0,0,2.12,0L51.59,68H86.5A1.5,1.5,0,0,0,88,66.5v-48A1.5,1.5,0,0,0,86.5,17ZM26,89.38,21.62,85l34.8-34.8,7.34-3-3,7.34ZM85,65H54.59l8.52-8.52a1.49,1.49,0,0,0,.33-.49l4.45-10.92a1.5,1.5,0,0,0-2-2L55,47.56a1.51,1.51,0,0,0-.49.33L37.41,65H15V20H85Z"/><path d="M74,40a7,7,0,1,0-7-7A7,7,0,0,0,74,40Zm0-11a4,4,0,1,1-4,4A4,4,0,0,1,74,29Z"/><path d="M21,59H34.11a1.5,1.5,0,0,0,0-3H23.77l17.5-26.76,8.47,12.95a1.5,1.5,0,1,0,2.51-1.64L42.53,25.68a1.56,1.56,0,0,0-2.51,0l-20.28,31A1.5,1.5,0,0,0,21,59Z"/></svg>