<svg id="Слой_2" data-name="Слой 2" xmlns="http://www.w3.org/2000/svg" viewBox="0 0 100 100"><title>Монтажная область 8</title><path d="M65.24,22.32a1.5,1.5,0,1,0,2.51-1.64A21.61,21.61,0,0,0,49.5,11a1.5,1.5,0,0,0,0,3A18.62,18.62,0,0,1,65.24,22.32Z"/><path d="M79,32.32C79,16.69,65.78,4,49.5,4S20,16.69,20,32.32A28.38,28.38,0,0,0,36,57.53V70H33.5A1.5,1.5,0,0,0,32,71.5v14A1.5,1.5,0,0,0,33.5,87h4.06c.55,5.87,5.92,10.5,12.44,10.5S61.89,92.87,62.44,87H66.5A1.5,1.5,0,0,0,68,85.5v-14A1.5,1.5,0,0,0,66.5,70H63V57.53A28.38,28.38,0,0,0,79,32.32ZM50,94.5c-4.86,0-8.87-3.28-9.42-7.5H59.43C58.87,91.22,54.86,94.5,50,94.5ZM65,84H35V73H65ZM47.26,69.85,43.69,34.69a10.41,10.41,0,0,0,11.59,0L51.57,69.84a1.48,1.48,0,0,0,0,.16H47.26A1.46,1.46,0,0,0,47.26,69.85Zm7.31.15,4.28-40.49A7.58,7.58,0,0,0,59,28a1.5,1.5,0,0,0-1.42-1.5A1.48,1.48,0,0,0,56,27.84L55.88,29c-.58,2.52-3.22,4.42-6.38,4.42S43.67,31.54,43.11,29L43,27.85A1.5,1.5,0,0,0,40,28a7.6,7.6,0,0,0,.14,1.45L44.26,70H39V56.58a1.5,1.5,0,0,0-.88-1.37A25.42,25.42,0,0,1,23,32.32C23,18.35,34.88,7,49.5,7S76,18.35,76,32.32A25.42,25.42,0,0,1,60.88,55.22,1.5,1.5,0,0,0,60,56.58V70Z"/></svg>