<svg id="Слой_1" data-name="Слой 1" xmlns="http://www.w3.org/2000/svg" viewBox="0 0 100 100"><title>testМонтажная область 4</title><path d="M84,17.5H17A1.5,1.5,0,0,0,15.5,19V52A1.5,1.5,0,0,0,17,53.5h9.5V82A1.5,1.5,0,0,0,28,83.5h7.5V90A1.5,1.5,0,0,0,37,91.5H73A1.5,1.5,0,0,0,74.5,90V53.5H84A1.5,1.5,0,0,0,85.5,52V19A1.5,1.5,0,0,0,84,17.5Zm-65.5,33v-30h8v30Zm11-30h33v60h-33Zm42,68h-33v-5H64A1.5,1.5,0,0,0,65.5,82V28.5h6Zm11-38h-8V27A1.5,1.5,0,0,0,73,25.5H65.5v-5h17Z"/><path d="M40.5,55.77a1.5,1.5,0,0,0-3,0c0,3.57,3,6.54,7,7.15V65a1.5,1.5,0,0,0,3,0V62.92c4-.61,7-3.58,7-7.15s-3-6.54-7-7.15V40.13c2.3.51,4,2.15,4,4.11a1.5,1.5,0,0,0,3,0c0-3.57-3-6.54-7-7.15V35a1.5,1.5,0,0,0-3,0v2.08c-4,.61-7,3.58-7,7.15s3,6.54,7,7.14v8.5C42.2,59.36,40.5,57.72,40.5,55.77Zm11,0c0,2-1.69,3.6-4,4.11V51.66C49.81,52.17,51.5,53.82,51.5,55.77Zm-11-11.53c0-2,1.69-3.6,4-4.11v8.2C42.19,47.82,40.5,46.18,40.5,44.23Z"/><circle cx="29" cy="9" r="2"/><circle cx="39" cy="9" r="2"/></svg>