<svg id="Слой_2" data-name="Слой 2" xmlns="http://www.w3.org/2000/svg" viewBox="0 0 100 100"><title>Монтажная область 6</title><path d="M90.2,22.27,77.73,9.8a4.44,4.44,0,0,0-6.28,0L47.8,33.45a4.44,4.44,0,0,0,0,6.28L53,44.9l-8.57,8.57L38.74,47.8a4.45,4.45,0,0,0-6.29,0L8.8,71.44a4.45,4.45,0,0,0,0,6.29L21.26,90.2a4.46,4.46,0,0,0,6.29,0L51.2,66.56a4.45,4.45,0,0,0,0-6.29l-4.67-4.67L55.1,47l5.17,5.17a4.44,4.44,0,0,0,6.28,0L90.2,28.55A4.44,4.44,0,0,0,90.2,22.27ZM49.08,62.38a1.45,1.45,0,0,1,0,2.05L25.43,88.08a1.45,1.45,0,0,1-2.05,0L10.92,75.62a1.45,1.45,0,0,1,0-2.05L34.57,49.92a1.45,1.45,0,0,1,2.05,0l5.67,5.67-6.85,6.85a1.5,1.5,0,1,0,2.12,2.12l6.85-6.85Zm39-36L64.43,50.08a1.47,1.47,0,0,1-2,0L57.22,44.9l7.34-7.34a1.5,1.5,0,0,0-2.12-2.12L55.1,42.78l-5.17-5.17a1.44,1.44,0,0,1,0-2L73.57,11.92a1.44,1.44,0,0,1,2,0L88.08,24.39a1.44,1.44,0,0,1,0,2Z"/></svg>