<svg id="Слой_2" data-name="Слой 2" xmlns="http://www.w3.org/2000/svg" viewBox="0 0 100 100"><title>Монтажная область 3</title><path d="M26,21H20a1.5,1.5,0,0,0,0,3h6a1.5,1.5,0,0,0,0-3Z"/><path d="M40,21H34a1.5,1.5,0,0,0,0,3h6a1.5,1.5,0,0,0,0-3Z"/><path d="M86.44,27H84V19.06A5.07,5.07,0,0,0,78.94,14H17.06A5.07,5.07,0,0,0,12,19.06V58.94A5.07,5.07,0,0,0,17.06,64H21V75.44A4.57,4.57,0,0,0,25.56,80H39.44A4.57,4.57,0,0,0,44,75.44V64h7V75.44A4.57,4.57,0,0,0,55.56,80H86.44A4.57,4.57,0,0,0,91,75.44V31.56A4.57,4.57,0,0,0,86.44,27Zm-47,50H25.56A1.57,1.57,0,0,1,24,75.44V45.56A1.57,1.57,0,0,1,25.56,44H39.44A1.57,1.57,0,0,1,41,45.56V62.49h0V75.44A1.57,1.57,0,0,1,39.44,77ZM44,61V45.56A4.57,4.57,0,0,0,39.44,41H25.56A4.57,4.57,0,0,0,21,45.56V61H17.06A2.06,2.06,0,0,1,15,58.94V19.06A2.06,2.06,0,0,1,17.06,17H78.94A2.06,2.06,0,0,1,81,19.06V27H55.56A4.57,4.57,0,0,0,51,31.56V61ZM88,75.44A1.57,1.57,0,0,1,86.44,77H55.56A1.57,1.57,0,0,1,54,75.44V31.56A1.57,1.57,0,0,1,55.56,30H86.44A1.57,1.57,0,0,1,88,31.56Z"/><circle cx="71" cy="71" r="2.5" transform="translate(-0.25 0.25) rotate(-0.2)"/></svg>