<svg id="Слой_2" data-name="Слой 2" xmlns="http://www.w3.org/2000/svg" viewBox="0 0 100 100"><title>Монтажная область 4</title><path d="M65.3,12.16a1.5,1.5,0,0,0-1.45-.08L32.79,27H6.5A1.5,1.5,0,0,0,5,28.5v28s0,.06,0,.09a1.13,1.13,0,0,0,.05.31s0,.09,0,.14a1.46,1.46,0,0,0,.07.16l0,.08,20.92,35a1.5,1.5,0,0,0,1.29.73H41.5a1.5,1.5,0,0,0,1.29-2.27L23.23,58h9.64l31,14.85A1.5,1.5,0,0,0,66,71.5V13.43A1.5,1.5,0,0,0,65.3,12.16ZM8,30H32V55H8ZM38.86,90H28.27L9.14,58H19.73ZM63,69.11,35,55.7V29.27L63,15.81Z"/><path d="M79.5,33.5a1.49,1.49,0,0,0,.88-.29l11-8a1.5,1.5,0,1,0-1.76-2.43l-11,8a1.5,1.5,0,0,0,.88,2.71Z"/><path d="M94.5,41h-15a1.5,1.5,0,0,0,0,3h15a1.5,1.5,0,0,0,0-3Z"/><path d="M91.38,59.79l-11-8a1.5,1.5,0,1,0-1.76,2.43l11,8a1.5,1.5,0,1,0,1.76-2.43Z"/></svg>