<svg id="Слой_2" data-name="Слой 2" xmlns="http://www.w3.org/2000/svg" viewBox="0 0 100 100"><title>Монтажная область 2</title><path d="M84.5,14h-69A1.5,1.5,0,0,0,14,15.5v69a1.5,1.5,0,0,0,2.54,1.08,1.49,1.49,0,0,0,.9-.32l7.24-5.79,7.41,5.92a1.5,1.5,0,0,0,1.87,0l7.25-5.8,7.37,5.89a1.5,1.5,0,0,0,1.87,0l7.54-6,7.42,5.93a1.5,1.5,0,0,0,1.87,0l7.46-6,7.82,6.25a1.45,1.45,0,0,0,1.43.23,1.49,1.49,0,0,0,2-1.41v-69A1.5,1.5,0,0,0,84.5,14ZM83,41H24.24L83,17.32ZM75.77,17,17,40.68V17Zm-.09,59.33a1.5,1.5,0,0,0-1.87,0l-7.46,6-7.42-5.93a1.5,1.5,0,0,0-1.87,0l-7.54,6L42.15,76.5a1.5,1.5,0,0,0-1.87,0L33,82.3l-7.41-5.92a1.5,1.5,0,0,0-1.87,0L17,81.76V44H83V82.18Z"/><path d="M68.5,51h-37a1.5,1.5,0,0,0,0,3h37a1.5,1.5,0,0,0,0-3Z"/><path d="M68.5,58h-37a1.5,1.5,0,0,0,0,3h37a1.5,1.5,0,0,0,0-3Z"/><path d="M50.5,65h-19a1.5,1.5,0,0,0,0,3h19a1.5,1.5,0,0,0,0-3Z"/></svg>