<svg id="Слой_2" data-name="Слой 2" xmlns="http://www.w3.org/2000/svg" viewBox="0 0 100 100"><title>Монтажная область 19</title><path d="M85.5,16h-71A1.5,1.5,0,0,0,13,17.5v64A1.5,1.5,0,0,0,14.5,83h71A1.5,1.5,0,0,0,87,81.5v-64A1.5,1.5,0,0,0,85.5,16ZM84,19V34H16V19ZM16,80V37H84V80Z"/><path d="M21.5,28h6a1.5,1.5,0,0,0,0-3h-6a1.5,1.5,0,0,0,0,3Z"/><path d="M35,28h6a1.5,1.5,0,0,0,0-3H35a1.5,1.5,0,0,0,0,3Z"/><path d="M62.37,56.5l-18-12.73A1.5,1.5,0,0,0,42,45V69a1.5,1.5,0,0,0,2.3,1.27L62.3,59a1.5,1.5,0,0,0,.07-2.5ZM45,66.29V47.9l13.79,9.75Z"/></svg>