<svg id="Слой_2" data-name="Слой 2" xmlns="http://www.w3.org/2000/svg" viewBox="0 0 100 100"><title>Монтажная область 21 копия</title><path d="M91.08,35.09A34.45,34.45,0,0,0,24.85,24.33H11.33A5.34,5.34,0,0,0,6,29.66V48c0,2.58,1.91,5.33,7.25,5.33h2.4l-1.1,2.24A3.74,3.74,0,0,0,17.79,61c1.92.06,3.26.1,4.2.11v3.77c0,11.74,2.89,18.53,17.63,18.53l6.39.21v6.25a1.5,1.5,0,0,0,3,0v-7.7a1.5,1.5,0,0,0-1.45-1.5l-7.89-.26C28.27,80.37,25,76.88,25,64.84l0-5.32A1.5,1.5,0,0,0,23.35,58l-.2,0c-.3,0-1.39,0-5.28-.09a.74.74,0,0,1-.64-1.07L19,53.33H32.37a15,15,0,0,0,12.76-7H86.82a31.13,31.13,0,0,1-9.29,14.45A1.5,1.5,0,0,0,77,61.9l0,26.93a1.5,1.5,0,0,0,1.5,1.5h0a1.5,1.5,0,0,0,1.5-1.5l0-26.26A34.07,34.07,0,0,0,91.08,35.09ZM59,6.08A31.43,31.43,0,0,1,87.57,31.33H45.17a14.63,14.63,0,0,0-1.93-2.52,14.38,14.38,0,0,0-10.48-4.48H28.12A31.24,31.24,0,0,1,59,6.08ZM9,48V29.66a2.33,2.33,0,0,1,2.33-2.33H14v23h-.75C11.67,50.33,9,50,9,48Zm23.37,2.33H17v-23H32.77a11.5,11.5,0,0,1,11.49,12A11.83,11.83,0,0,1,32.37,50.33Zm14.16-7a14.15,14.15,0,0,0,.72-3.84,14.54,14.54,0,0,0-.71-5.16H88c0,.32.06.63.08,1a31.6,31.6,0,0,1-.52,8Z"/></svg>