<svg id="Слой_2" data-name="Слой 2" xmlns="http://www.w3.org/2000/svg" viewBox="0 0 100 100"><title>Монтажная область 17</title><path d="M89.55,27.53,85,16a1.49,1.49,0,0,0-2.31-1L70.45,19.52a1.5,1.5,0,0,0,1,2.81l9.14-3.4L65.33,52.5,57.54,39.24a1.5,1.5,0,0,0-2.65.12L43.68,63.28,34.66,46a1.43,1.43,0,0,0-1.37-.81A1.5,1.5,0,0,0,32,46L18,76.61V16.5a1.5,1.5,0,0,0-3,0v67s0,.07,0,.1a1.49,1.49,0,0,0,0,.17s0,.09,0,.14,0,.09,0,.14l.07.14.07.12.09.12.09.11.11.1.11.09.15.09.09.05h0l.23.08.06,0,.29,0h67a1.5,1.5,0,0,0,0-3H18.83L33.42,50.08l9,17.28a1.5,1.5,0,0,0,2.69-.06L56.4,43.22l7.81,13.29a1.5,1.5,0,0,0,2.66-.14L83.4,20.11l3.36,8.52a1.5,1.5,0,0,0,2.79-1.1Z"/></svg>