<svg id="Слой_2" data-name="Слой 2" xmlns="http://www.w3.org/2000/svg" viewBox="0 0 100 100"><title>Монтажная область 7</title><path d="M64.5,8A27.5,27.5,0,1,0,92,35.5,27.53,27.53,0,0,0,64.5,8Zm0,52A24.5,24.5,0,1,1,89,35.5,24.53,24.53,0,0,1,64.5,60Z"/><path d="M25.76,45.94A1.5,1.5,0,0,0,27.68,45a20.72,20.72,0,0,1,5.12-7.95,1.5,1.5,0,0,0-2.08-2.16A23.73,23.73,0,0,0,24.85,44,1.5,1.5,0,0,0,25.76,45.94Z"/><path d="M28.43,65.23a1.5,1.5,0,0,0,1.27-2.3A20.54,20.54,0,0,1,26.5,52.35a1.5,1.5,0,0,0-3,.06,23.55,23.55,0,0,0,3.65,12.12A1.5,1.5,0,0,0,28.43,65.23Z"/><path d="M61.92,66.21a20.58,20.58,0,0,1-9.52,5.61,1.5,1.5,0,1,0,.77,2.9,23.57,23.57,0,0,0,10.91-6.42,1.5,1.5,0,1,0-2.16-2.08Z"/><path d="M45,72.4a20.51,20.51,0,0,1-10.28-4,1.5,1.5,0,1,0-1.8,2.4,23.52,23.52,0,0,0,11.79,4.61h.15a1.5,1.5,0,0,0,.15-3Z"/><path d="M14.45,73.62A15.15,15.15,0,0,1,14,69.93a15.38,15.38,0,0,1,.1-1.73,1.5,1.5,0,1,0-3-.34A18.41,18.41,0,0,0,11,69.93a18.14,18.14,0,0,0,.54,4.42A1.5,1.5,0,0,0,13,75.48a1.5,1.5,0,0,0,1.46-1.87Z"/><path d="M13.66,63.65a1.5,1.5,0,0,0,2-.64A15.06,15.06,0,0,1,19,58.72a1.5,1.5,0,0,0-2-2.23,18.06,18.06,0,0,0-4,5.15A1.5,1.5,0,0,0,13.66,63.65Z"/><path d="M40.38,79.9a15.07,15.07,0,0,1-4.26,3.36,1.5,1.5,0,1,0,1.4,2.65,18.08,18.08,0,0,0,5.11-4,1.5,1.5,0,1,0-2.25-2Z"/><path d="M20.56,82.37a15.11,15.11,0,0,1-3.86-3.82,1.5,1.5,0,1,0-2.46,1.72,18.09,18.09,0,0,0,4.62,4.58,1.5,1.5,0,1,0,1.7-2.47Z"/><path d="M30.94,84.89a15.29,15.29,0,0,1-5.42-.31,1.5,1.5,0,0,0-.71,2.92,18.25,18.25,0,0,0,6.49.37,1.5,1.5,0,1,0-.37-3Z"/></svg>