<svg id="Слой_2" data-name="Слой 2" xmlns="http://www.w3.org/2000/svg" viewBox="0 0 100 100"><title>Монтажная область 25</title><path d="M61.28,65.91a1.5,1.5,0,0,0-2.05-.49l-9.86,6a7.44,7.44,0,0,1-9.81-2.15L26.14,47.8a6.56,6.56,0,0,1-.83-5,6.63,6.63,0,0,1,3-4.15h0l10.24-6.25a1.5,1.5,0,0,0,.49-2.07l-8.49-13.6a1.5,1.5,0,0,0-2.05-.49L18.3,22.47a16.75,16.75,0,0,0-7.65,10.9c-2.14,9,1,21.25,8.64,33.49C28.39,81.44,40.47,90,50.78,90a16.48,16.48,0,0,0,8.71-2.4l9.79-6a1.5,1.5,0,0,0,.49-2.07ZM57.93,85c-10,6.09-25.16-2.21-36.09-19.74-7.11-11.39-10.2-23.06-8.27-31.21a13.85,13.85,0,0,1,6.29-9l9-5.47,6.9,11.06-8.95,5.46h0A9.62,9.62,0,0,0,23.6,49.39L37,70.88A10.43,10.43,0,0,0,50.93,74l8.6-5.25,6.9,11.06Z"/><path d="M49.91,33.5A15.39,15.39,0,0,1,62,40.41a15,15,0,0,1,1.7,13.11,1.5,1.5,0,1,0,2.84,1,17.93,17.93,0,0,0-2-15.73A18.61,18.61,0,0,0,50.09,30.5a1.5,1.5,0,1,0-.17,3Z"/><path d="M52.67,18.51a1.5,1.5,0,1,0-.35,3,26.62,26.62,0,0,1,19.35,12A27,27,0,0,1,75,55.59a1.5,1.5,0,1,0,2.88.82A30,30,0,0,0,74.2,31.9,29.62,29.62,0,0,0,52.67,18.51Z"/><path d="M82.87,26.12A40.92,40.92,0,0,0,54.21,8a1.5,1.5,0,0,0-.41,3A37.91,37.91,0,0,1,80.36,27.76a37.51,37.51,0,0,1,4.83,30.35,1.5,1.5,0,0,0,1.06,1.84,1.52,1.52,0,0,0,.39.05,1.5,1.5,0,0,0,1.45-1.11A40.52,40.52,0,0,0,82.87,26.12Z"/></svg>