<svg id="Слой_1" data-name="Слой 1" xmlns="http://www.w3.org/2000/svg" viewBox="0 0 100 100"><title>testМонтажная область 16</title><path d="M77.64,24.56a19.09,19.09,0,0,0-7.58,1.57A25.28,25.28,0,0,0,44.71,3.5c-14,0-25.45,11.17-25.45,24.9A24.24,24.24,0,0,0,19.7,33,14.4,14.4,0,1,0,17.17,61.5h.5a1.5,1.5,0,1,0,0-3h-.5a11.38,11.38,0,1,1,0-22.75,11.91,11.91,0,0,1,4.08.73,1.5,1.5,0,0,0,1.95-1.85,21.43,21.43,0,0,1-.94-6.24c0-12.08,10.07-21.9,22.45-21.9s22.45,9.83,22.45,21.86c0,0,0,.14,0,.18a1.5,1.5,0,0,0,2.27,1.29,16.11,16.11,0,0,1,8.22-2.26,15.46,15.46,0,1,1,.55,30.91l-.24,0H72.09a1.5,1.5,0,1,0,0,3h6.15a1.47,1.47,0,0,0,.35,0,18.45,18.45,0,0,0-.95-36.89Z"/><path d="M73.94,77.94,64.5,87.38V43a1.5,1.5,0,0,0-3,0V87.38l-9.44-9.44a1.5,1.5,0,1,0-2.12,2.12l12,12a1.5,1.5,0,0,0,2.12,0l12-12a1.5,1.5,0,0,0-2.12-2.12Z"/><path d="M50.06,53.94l-12-12a1.5,1.5,0,0,0-2.12,0l-12,12a1.5,1.5,0,0,0,2.12,2.12l9.44-9.44V91a1.5,1.5,0,0,0,3,0V46.62l9.44,9.44a1.5,1.5,0,0,0,2.12-2.12Z"/><path d="M57.59,24.52a1.5,1.5,0,0,0,2.81-1A16.61,16.61,0,0,0,45,12.5a1.5,1.5,0,0,0,0,3A13.6,13.6,0,0,1,57.59,24.52Z"/></svg>