<svg id="Слой_1" data-name="Слой 1" xmlns="http://www.w3.org/2000/svg" viewBox="0 0 100 100"><title>testМонтажная область 17</title><path d="M88.5,36V24A5.51,5.51,0,0,0,83,18.5H18A5.51,5.51,0,0,0,12.5,24V36a5.48,5.48,0,0,0,1.74,4,5.48,5.48,0,0,0-1.74,4V56a5.48,5.48,0,0,0,1.74,4,5.48,5.48,0,0,0-1.74,4V76A5.51,5.51,0,0,0,18,81.5H83A5.51,5.51,0,0,0,88.5,76V64a5.48,5.48,0,0,0-1.74-4,5.48,5.48,0,0,0,1.74-4V44a5.48,5.48,0,0,0-1.74-4A5.48,5.48,0,0,0,88.5,36Zm-3,28V76A2.5,2.5,0,0,1,83,78.5H18A2.5,2.5,0,0,1,15.5,76V64A2.5,2.5,0,0,1,18,61.5H83A2.5,2.5,0,0,1,85.5,64Zm0-20V56A2.5,2.5,0,0,1,83,58.5H18A2.5,2.5,0,0,1,15.5,56V44A2.5,2.5,0,0,1,18,41.5H83A2.5,2.5,0,0,1,85.5,44ZM18,38.5A2.5,2.5,0,0,1,15.5,36V24A2.5,2.5,0,0,1,18,21.5H83A2.5,2.5,0,0,1,85.5,24V36A2.5,2.5,0,0,1,83,38.5Z"/><circle cx="25" cy="30" r="3"/><circle cx="25" cy="50" r="3"/><circle cx="25" cy="70" r="3"/><path d="M79,28.5H59a1.5,1.5,0,0,0,0,3H79a1.5,1.5,0,0,0,0-3Z"/><path d="M59,51.5H79a1.5,1.5,0,0,0,0-3H59a1.5,1.5,0,0,0,0,3Z"/><path d="M59,71.5H79a1.5,1.5,0,0,0,0-3H59a1.5,1.5,0,0,0,0,3Z"/></svg>